<svg xmlns="http://www.w3.org/2000/svg" viewBox="0 0 22 29">
    <defs>
        <clipPath id="a">
            <path d="M.012 0h21.976v28.992H.012Zm0 0"></path>
        </clipPath>
        <clipPath id="b">
            <path d="M.012 18.578h11.336v10.414H.012Zm0 0"></path>
        </clipPath>
        <clipPath id="c">
            <path d="M.012 0h3.824v8.977H.012Zm0 0"></path>
        </clipPath>
    </defs>
    <g clip-path="url(#a)">
        <path
            d="M19.992.016h-5.086c-4.683 4.316-9.36 8.64-14.039 12.96-.25.235-.52.454-.855.739.254.21.433.344.601.492l6.457 5.906c3.137 2.86 6.27 5.727 9.418 8.57.196.176.516.286.785.294 1.286.03 2.575.02 3.864.023h.754c.011-.047.027-.09.039-.137A38540.87 38540.87 0 0 1 5.242 13.645c4.903-4.532 9.785-9.04 14.75-13.63Zm0 0"
            style="stroke:none;fill-rule:nonzero;fill:#2596be;fill-opacity:1"></path>
    </g>
    <g clip-path="url(#b)">
        <path
            d="M11.176 28.965H.062V18.773c.536.477 1.024.907 1.5 1.34.665.606 1.333 1.203 1.977 1.828a.894.894 0 0 1 .238.567c.028.82.032 1.64 0 2.46-.015.419.149.532.543.52.922-.02 1.844-.015 2.766-.004.176.004.394.047.516.157 1.12 1 2.222 2.02 3.328 3.035.062.054.11.129.246.289Zm0 0"
            style="stroke:none;fill-rule:nonzero;fill:#2596be;fill-opacity:1"></path>
    </g>
    <g clip-path="url(#c)">
        <path
            d="M3.785.016H.047C.027 2.934.03 5.848.03 8.902c1.266-1.172 2.442-2.25 3.61-3.343a.567.567 0 0 0 .14-.364c.004-1.726 0-3.453.004-5.18Zm0 0"
            style="stroke:none;fill-rule:nonzero;fill:#2596be;fill-opacity:1"></path>
    </g>
</svg>