<svg xmlns="http://www.w3.org/2000/svg" xmlns:xlink="http://www.w3.org/1999/xlink" width="500" zoomAndPan="magnify" viewBox="0 0 375 374.999991" height="500" preserveAspectRatio="xMidYMid meet" version="1.0"><defs><clipPath id="654d8fdd28"><path d="M 59 46 L 316 46 L 316 329 L 59 329 Z M 59 46 " clip-rule="nonzero"/></clipPath><clipPath id="0d88dddbb3"><path d="M 363.519531 110.539062 L 140.273438 373.574219 L 11.617188 264.375 L 234.863281 1.34375 Z M 363.519531 110.539062 " clip-rule="nonzero"/></clipPath><clipPath id="dc3eb34a98"><path d="M 363.519531 110.539062 L 140.273438 373.574219 L 11.617188 264.375 L 234.863281 1.34375 Z M 363.519531 110.539062 " clip-rule="nonzero"/></clipPath><clipPath id="631e36553c"><path d="M 58 45 L 317 45 L 317 330 L 58 330 Z M 58 45 " clip-rule="nonzero"/></clipPath><clipPath id="afc617b25b"><path d="M 363.519531 110.539062 L 140.273438 373.574219 L 11.617188 264.375 L 234.863281 1.34375 Z M 363.519531 110.539062 " clip-rule="nonzero"/></clipPath><clipPath id="9aa3f3e5d5"><path d="M 363.519531 110.539062 L 140.273438 373.574219 L 11.617188 264.375 L 234.863281 1.34375 Z M 363.519531 110.539062 " clip-rule="nonzero"/></clipPath><clipPath id="65803ab097"><path d="M 103.152344 16 L 271.902344 16 L 271.902344 359 L 103.152344 359 Z M 103.152344 16 " clip-rule="nonzero"/></clipPath><clipPath id="92b83d4646"><path d="M 103.152344 14.921875 L 271.902344 14.921875 L 271.902344 359.921875 L 103.152344 359.921875 Z M 103.152344 14.921875 " clip-rule="nonzero"/></clipPath><clipPath id="8b080110e1"><path d="M 62 44 L 313 44 L 313 331 L 62 331 Z M 62 44 " clip-rule="nonzero"/></clipPath><clipPath id="802d7c1fa3"><path d="M 145.640625 0 L 361.097656 269.449219 L 229.304688 374.835938 L 13.84375 105.386719 Z M 145.640625 0 " clip-rule="nonzero"/></clipPath><clipPath id="63b77938f9"><path d="M 145.640625 0 L 361.097656 269.449219 L 229.304688 374.835938 L 13.84375 105.386719 Z M 145.640625 0 " clip-rule="nonzero"/></clipPath><clipPath id="a2b95ac5a5"><path d="M 61 42 L 314 42 L 314 333 L 61 333 Z M 61 42 " clip-rule="nonzero"/></clipPath><clipPath id="6d2d7ea5cf"><path d="M 145.640625 0 L 361.097656 269.449219 L 229.304688 374.835938 L 13.84375 105.386719 Z M 145.640625 0 " clip-rule="nonzero"/></clipPath><clipPath id="060cbb32ba"><path d="M 145.640625 0 L 361.097656 269.449219 L 229.304688 374.835938 L 13.84375 105.386719 Z M 145.640625 0 " clip-rule="nonzero"/></clipPath></defs><g clip-path="url(#654d8fdd28)"><g clip-path="url(#0d88dddbb3)"><g clip-path="url(#dc3eb34a98)"><path fill="#8ac1d6" d="M 76.96875 317.726562 C 75.925781 316.839844 74.929688 315.90625 73.976562 314.917969 C 73.023438 313.929688 72.117188 312.890625 71.257812 311.800781 C 70.398438 310.710938 69.585938 309.574219 68.820312 308.386719 C 68.054688 307.199219 67.339844 305.964844 66.671875 304.679688 C 66 303.398438 65.382812 302.066406 64.808594 300.691406 C 64.238281 299.316406 63.71875 297.894531 63.246094 296.429688 C 62.773438 294.964844 62.351562 293.457031 61.980469 291.90625 C 61.609375 290.355469 61.285156 288.765625 61.015625 287.132812 C 60.746094 285.5 60.527344 283.828125 60.359375 282.117188 C 60.191406 280.40625 60.070312 278.660156 60.007812 276.875 C 59.941406 275.089844 59.925781 273.269531 59.960938 271.417969 C 59.996094 269.5625 60.085938 267.675781 60.222656 265.757812 C 60.363281 263.835938 60.550781 261.886719 60.792969 259.90625 C 61.03125 257.925781 61.324219 255.917969 61.667969 253.882812 C 62.007812 251.847656 62.402344 249.789062 62.84375 247.699219 C 63.285156 245.613281 63.777344 243.503906 64.320312 241.371094 C 64.863281 239.238281 65.457031 237.085938 66.09375 234.914062 C 66.734375 232.742188 67.425781 230.550781 68.164062 228.34375 C 68.898438 226.132812 69.683594 223.910156 70.515625 221.671875 C 71.347656 219.433594 72.226562 217.179688 73.152344 214.917969 C 74.078125 212.65625 75.046875 210.382812 76.0625 208.097656 C 77.082031 205.816406 78.140625 203.527344 79.246094 201.230469 C 80.347656 198.933594 81.496094 196.632812 82.683594 194.328125 C 83.875 192.023438 85.105469 189.71875 86.378906 187.410156 C 87.652344 185.101562 88.964844 182.796875 90.316406 180.492188 C 91.667969 178.1875 93.058594 175.886719 94.488281 173.589844 C 95.914062 171.292969 97.378906 169.003906 98.882812 166.722656 C 100.382812 164.441406 101.917969 162.167969 103.488281 159.90625 C 105.0625 157.640625 106.664062 155.390625 108.300781 153.152344 C 109.9375 150.914062 111.605469 148.691406 113.304688 146.484375 C 115 144.277344 116.726562 142.085938 118.484375 139.914062 C 120.238281 137.742188 122.019531 135.59375 123.828125 133.460938 C 125.640625 131.328125 127.472656 129.222656 129.332031 127.136719 C 131.1875 125.050781 133.066406 122.992188 134.96875 120.957031 C 136.871094 118.921875 138.796875 116.914062 140.738281 114.9375 C 142.679688 112.957031 144.640625 111.011719 146.617188 109.09375 C 148.59375 107.175781 150.585938 105.289062 152.59375 103.4375 C 154.601562 101.585938 156.625 99.765625 158.65625 97.984375 C 160.691406 96.203125 162.734375 94.457031 164.789062 92.746094 C 166.84375 91.039062 168.90625 89.367188 170.972656 87.738281 C 173.042969 86.105469 175.121094 84.519531 177.199219 82.96875 C 179.28125 81.421875 181.363281 79.914062 183.449219 78.453125 C 185.539062 76.988281 187.625 75.570312 189.710938 74.199219 C 191.800781 72.824219 193.882812 71.496094 195.96875 70.21875 C 198.050781 68.9375 200.128906 67.703125 202.203125 66.519531 C 204.273438 65.332031 206.339844 64.199219 208.402344 63.109375 C 210.460938 62.023438 212.511719 60.988281 214.550781 60.003906 C 216.589844 59.019531 218.617188 58.085938 220.632812 57.203125 C 222.648438 56.320312 224.652344 55.492188 226.636719 54.714844 C 228.625 53.941406 230.59375 53.21875 232.546875 52.550781 C 234.5 51.882812 236.433594 51.265625 238.347656 50.707031 C 240.261719 50.148438 242.15625 49.644531 244.027344 49.195312 C 245.898438 48.746094 247.746094 48.355469 249.570312 48.015625 C 251.394531 47.679688 253.191406 47.398438 254.964844 47.175781 C 256.734375 46.949219 258.476562 46.78125 260.195312 46.667969 C 261.910156 46.558594 263.59375 46.503906 265.25 46.503906 C 266.902344 46.503906 268.527344 46.5625 270.117188 46.679688 C 271.707031 46.792969 273.261719 46.964844 274.785156 47.191406 C 276.308594 47.417969 277.792969 47.703125 279.246094 48.042969 C 280.695312 48.382812 282.105469 48.777344 283.480469 49.230469 C 284.855469 49.679688 286.191406 50.1875 287.488281 50.75 C 288.785156 51.3125 290.039062 51.929688 291.253906 52.601562 C 292.46875 53.269531 293.640625 53.996094 294.769531 54.773438 C 295.898438 55.554688 296.984375 56.386719 298.027344 57.269531 C 299.070312 58.152344 300.066406 59.089844 301.015625 60.078125 C 301.96875 61.066406 302.875 62.105469 303.734375 63.191406 C 304.59375 64.28125 305.40625 65.421875 306.171875 66.609375 C 306.9375 67.796875 307.65625 69.03125 308.324219 70.3125 C 308.992188 71.597656 309.613281 72.925781 310.183594 74.300781 C 310.753906 75.679688 311.277344 77.097656 311.75 78.5625 C 312.222656 80.027344 312.640625 81.535156 313.015625 83.085938 C 313.386719 84.636719 313.707031 86.230469 313.976562 87.863281 C 314.246094 89.496094 314.46875 91.164062 314.636719 92.875 C 314.804688 94.585938 314.921875 96.335938 314.988281 98.121094 C 315.054688 99.902344 315.070312 101.722656 315.03125 103.578125 C 314.996094 105.433594 314.910156 107.320312 314.769531 109.238281 C 314.632812 111.15625 314.441406 113.105469 314.203125 115.085938 C 313.960938 117.066406 313.667969 119.074219 313.328125 121.109375 C 312.984375 123.144531 312.59375 125.207031 312.148438 127.292969 C 311.707031 129.378906 311.214844 131.488281 310.671875 133.621094 C 310.128906 135.753906 309.539062 137.90625 308.898438 140.082031 C 308.257812 142.253906 307.570312 144.445312 306.832031 146.652344 C 306.09375 148.859375 305.308594 151.085938 304.476562 153.324219 C 303.644531 155.5625 302.765625 157.8125 301.839844 160.078125 C 300.914062 162.339844 299.945312 164.613281 298.929688 166.894531 C 297.914062 169.179688 296.851562 171.46875 295.75 173.765625 C 294.644531 176.0625 293.5 178.363281 292.308594 180.667969 C 291.117188 182.972656 289.886719 185.277344 288.617188 187.585938 C 287.34375 189.890625 286.03125 192.199219 284.679688 194.503906 C 283.328125 196.808594 281.9375 199.109375 280.507812 201.402344 C 279.078125 203.699219 277.613281 205.988281 276.113281 208.273438 C 274.609375 210.554688 273.074219 212.828125 271.503906 215.089844 C 269.933594 217.351562 268.328125 219.601562 266.691406 221.839844 C 265.054688 224.078125 263.390625 226.300781 261.691406 228.507812 C 259.992188 230.71875 258.265625 232.90625 256.511719 235.078125 C 254.753906 237.25 252.972656 239.402344 251.164062 241.535156 C 249.355469 243.664062 247.519531 245.773438 245.664062 247.859375 C 243.804688 249.945312 241.925781 252.003906 240.023438 254.039062 C 238.121094 256.074219 236.199219 258.078125 234.257812 260.058594 C 232.3125 262.035156 230.355469 263.984375 228.378906 265.902344 C 226.398438 267.820312 224.40625 269.703125 222.398438 271.558594 C 220.390625 273.410156 218.371094 275.226562 216.335938 277.011719 C 214.304688 278.792969 212.261719 280.539062 210.207031 282.246094 C 208.152344 283.957031 206.089844 285.625 204.019531 287.257812 C 201.949219 288.886719 199.875 290.476562 197.792969 292.027344 C 195.710938 293.574219 193.628906 295.078125 191.542969 296.542969 C 189.457031 298.003906 187.371094 299.421875 185.28125 300.796875 C 183.195312 302.171875 181.109375 303.496094 179.027344 304.777344 C 176.945312 306.058594 174.867188 307.292969 172.792969 308.476562 C 170.71875 309.660156 168.652344 310.796875 166.59375 311.882812 C 164.535156 312.96875 162.484375 314.007812 160.445312 314.992188 C 158.402344 315.976562 156.375 316.910156 154.359375 317.792969 C 152.34375 318.671875 150.34375 319.503906 148.355469 320.277344 C 146.367188 321.054688 144.398438 321.777344 142.445312 322.445312 C 140.492188 323.113281 138.558594 323.726562 136.644531 324.285156 C 134.730469 324.847656 132.835938 325.351562 130.964844 325.800781 C 129.09375 326.246094 127.246094 326.640625 125.421875 326.976562 C 123.601562 327.316406 121.800781 327.597656 120.03125 327.820312 C 118.257812 328.046875 116.515625 328.214844 114.800781 328.324219 C 113.085938 328.4375 111.398438 328.492188 109.746094 328.492188 C 108.089844 328.488281 106.46875 328.429688 104.878906 328.316406 C 103.285156 328.203125 101.730469 328.03125 100.207031 327.804688 C 98.6875 327.574219 97.199219 327.292969 95.75 326.953125 C 94.300781 326.613281 92.886719 326.214844 91.511719 325.765625 C 90.136719 325.3125 88.800781 324.804688 87.503906 324.246094 C 86.210938 323.683594 84.953125 323.066406 83.738281 322.394531 C 82.527344 321.722656 81.355469 321 80.222656 320.21875 C 79.09375 319.441406 78.007812 318.609375 76.96875 317.726562 Z M 76.96875 317.726562 " fill-opacity="1" fill-rule="nonzero"/></g></g></g><g clip-path="url(#631e36553c)"><g clip-path="url(#afc617b25b)"><g clip-path="url(#9aa3f3e5d5)"><path fill="#8ac1d6" d="M 243.957031 235.414062 C 229.351562 252.621094 213.5625 267.917969 196.949219 280.878906 C 181.117188 293.242188 165.265625 302.960938 149.898438 309.652344 C 135.242188 316.042969 121.277344 319.484375 109.585938 319.609375 C 98.378906 319.695312 89.285156 316.863281 82.550781 311.148438 C 75.8125 305.429688 71.542969 296.917969 69.804688 285.847656 C 68.027344 274.292969 69.15625 259.949219 73.078125 244.449219 C 77.183594 228.203125 84.195312 210.980469 93.820312 193.351562 C 103.863281 174.902344 116.390625 156.835938 131.039062 139.578125 C 145.6875 122.320312 161.429688 107.078125 178.046875 94.113281 C 193.878906 81.753906 209.730469 72.035156 225.09375 65.34375 C 239.75 58.953125 253.71875 55.507812 265.410156 55.382812 C 276.617188 55.300781 285.710938 58.128906 292.445312 63.847656 C 299.179688 69.5625 303.449219 78.074219 305.1875 89.148438 C 306.964844 100.703125 305.839844 115.042969 301.917969 130.542969 C 297.8125 146.792969 290.796875 164.015625 281.175781 181.644531 C 271.03125 200.101562 258.558594 218.210938 243.957031 235.414062 M 251.847656 242.113281 C 313.519531 169.449219 334.660156 86.097656 299.144531 55.953125 C 263.625 25.808594 184.820312 60.214844 123.144531 132.878906 C 61.472656 205.542969 40.28125 288.851562 75.851562 319.039062 C 111.367188 349.183594 190.175781 314.777344 251.847656 242.113281 Z M 251.847656 242.113281 " fill-opacity="1" fill-rule="nonzero"/></g></g></g><g clip-path="url(#65803ab097)"><path fill="#3883a4" d="M 187.496094 358.308594 C 186.128906 358.308594 184.765625 358.238281 183.398438 358.101562 C 182.035156 357.964844 180.671875 357.757812 179.3125 357.484375 C 177.953125 357.210938 176.597656 356.867188 175.242188 356.457031 C 173.890625 356.046875 172.546875 355.570312 171.207031 355.023438 C 169.863281 354.480469 168.53125 353.867188 167.207031 353.1875 C 165.878906 352.507812 164.5625 351.765625 163.257812 350.953125 C 161.949219 350.140625 160.652344 349.265625 159.363281 348.324219 C 158.078125 347.378906 156.804688 346.375 155.539062 345.304688 C 154.277344 344.234375 153.027344 343.101562 151.792969 341.90625 C 150.558594 340.710938 149.335938 339.457031 148.132812 338.136719 C 146.925781 336.820312 145.738281 335.441406 144.566406 334.007812 C 143.394531 332.570312 142.238281 331.074219 141.101562 329.519531 C 139.964844 327.96875 138.847656 326.359375 137.75 324.691406 C 136.652344 323.027344 135.578125 321.308594 134.519531 319.535156 C 133.464844 317.761719 132.429688 315.9375 131.417969 314.058594 C 130.40625 312.183594 129.414062 310.253906 128.449219 308.277344 C 127.480469 306.300781 126.539062 304.277344 125.621094 302.207031 C 124.703125 300.136719 123.8125 298.019531 122.945312 295.859375 C 122.078125 293.695312 121.238281 291.492188 120.421875 289.25 C 119.609375 287.003906 118.824219 284.71875 118.0625 282.394531 C 117.304688 280.070312 116.574219 277.707031 115.871094 275.3125 C 115.167969 272.914062 114.496094 270.480469 113.851562 268.015625 C 113.207031 265.550781 112.589844 263.054688 112.007812 260.527344 C 111.421875 258 110.871094 255.445312 110.347656 252.863281 C 109.824219 250.28125 109.332031 247.671875 108.871094 245.042969 C 108.410156 242.410156 107.980469 239.757812 107.585938 237.082031 C 107.1875 234.40625 106.824219 231.710938 106.492188 229 C 106.160156 226.289062 105.859375 223.5625 105.59375 220.820312 C 105.328125 218.078125 105.09375 215.324219 104.894531 212.558594 C 104.691406 209.796875 104.527344 207.023438 104.390625 204.238281 C 104.257812 201.457031 104.15625 198.671875 104.089844 195.878906 C 104.023438 193.085938 103.988281 190.292969 103.988281 187.496094 C 103.988281 184.703125 104.023438 181.90625 104.089844 179.117188 C 104.15625 176.324219 104.257812 173.535156 104.390625 170.753906 C 104.527344 167.972656 104.691406 165.199219 104.894531 162.433594 C 105.09375 159.667969 105.328125 156.914062 105.59375 154.175781 C 105.859375 151.433594 106.160156 148.707031 106.492188 145.992188 C 106.824219 143.28125 107.1875 140.589844 107.585938 137.914062 C 107.980469 135.238281 108.410156 132.585938 108.871094 129.953125 C 109.332031 127.320312 109.824219 124.714844 110.347656 122.132812 C 110.871094 119.546875 111.421875 116.992188 112.007812 114.464844 C 112.589844 111.941406 113.207031 109.445312 113.851562 106.976562 C 114.496094 104.511719 115.167969 102.082031 115.871094 99.683594 C 116.574219 97.285156 117.304688 94.925781 118.0625 92.601562 C 118.824219 90.277344 119.609375 87.992188 120.421875 85.746094 C 121.238281 83.5 122.078125 81.296875 122.945312 79.136719 C 123.8125 76.976562 124.703125 74.859375 125.621094 72.789062 C 126.539062 70.71875 127.480469 68.691406 128.449219 66.714844 C 129.414062 64.738281 130.40625 62.8125 131.417969 60.933594 C 132.429688 59.058594 133.464844 57.234375 134.519531 55.460938 C 135.578125 53.6875 136.652344 51.964844 137.75 50.300781 C 138.847656 48.636719 139.964844 47.027344 141.101562 45.472656 C 142.238281 43.921875 143.394531 42.425781 144.566406 40.988281 C 145.738281 39.550781 146.925781 38.175781 148.132812 36.855469 C 149.335938 35.539062 150.558594 34.28125 151.792969 33.085938 C 153.027344 31.890625 154.277344 30.757812 155.539062 29.691406 C 156.804688 28.621094 158.078125 27.613281 159.363281 26.671875 C 160.652344 25.730469 161.949219 24.855469 163.257812 24.042969 C 164.5625 23.230469 165.878906 22.484375 167.207031 21.804688 C 168.53125 21.128906 169.863281 20.515625 171.207031 19.96875 C 172.546875 19.425781 173.890625 18.945312 175.242188 18.535156 C 176.597656 18.125 177.953125 17.785156 179.3125 17.511719 C 180.671875 17.234375 182.035156 17.03125 183.398438 16.894531 C 184.765625 16.757812 186.128906 16.6875 187.496094 16.6875 C 188.863281 16.6875 190.230469 16.757812 191.59375 16.894531 C 192.960938 17.03125 194.320312 17.234375 195.683594 17.511719 C 197.042969 17.785156 198.398438 18.125 199.75 18.535156 C 201.101562 18.945312 202.449219 19.425781 203.789062 19.96875 C 205.128906 20.515625 206.460938 21.128906 207.789062 21.804688 C 209.113281 22.484375 210.429688 23.230469 211.738281 24.042969 C 213.046875 24.855469 214.34375 25.730469 215.628906 26.671875 C 216.917969 27.613281 218.191406 28.621094 219.453125 29.691406 C 220.714844 30.757812 221.964844 31.890625 223.199219 33.085938 C 224.4375 34.28125 225.65625 35.539062 226.863281 36.855469 C 228.066406 38.175781 229.257812 39.550781 230.429688 40.988281 C 231.601562 42.425781 232.753906 43.921875 233.890625 45.472656 C 235.027344 47.027344 236.144531 48.636719 237.242188 50.300781 C 238.339844 51.964844 239.417969 53.6875 240.472656 55.460938 C 241.53125 57.234375 242.5625 59.058594 243.578125 60.933594 C 244.589844 62.8125 245.578125 64.738281 246.546875 66.714844 C 247.511719 68.691406 248.453125 70.71875 249.371094 72.789062 C 250.289062 74.859375 251.183594 76.976562 252.046875 79.136719 C 252.914062 81.296875 253.757812 83.5 254.570312 85.746094 C 255.382812 87.992188 256.171875 90.277344 256.929688 92.601562 C 257.691406 94.925781 258.421875 97.285156 259.125 99.683594 C 259.824219 102.082031 260.5 104.511719 261.144531 106.976562 C 261.789062 109.445312 262.402344 111.941406 262.988281 114.464844 C 263.570312 116.992188 264.125 119.546875 264.648438 122.132812 C 265.171875 124.714844 265.664062 127.320312 266.121094 129.953125 C 266.582031 132.585938 267.011719 135.238281 267.410156 137.914062 C 267.804688 140.589844 268.167969 143.28125 268.5 145.992188 C 268.832031 148.707031 269.132812 151.433594 269.398438 154.175781 C 269.667969 156.914062 269.898438 159.667969 270.101562 162.433594 C 270.300781 165.199219 270.46875 167.972656 270.601562 170.753906 C 270.734375 173.535156 270.835938 176.324219 270.902344 179.117188 C 270.96875 181.90625 271.003906 184.703125 271.003906 187.496094 C 271.003906 190.292969 270.96875 193.085938 270.902344 195.878906 C 270.835938 198.671875 270.734375 201.457031 270.601562 204.238281 C 270.46875 207.023438 270.300781 209.796875 270.101562 212.558594 C 269.898438 215.324219 269.667969 218.078125 269.398438 220.820312 C 269.132812 223.5625 268.832031 226.289062 268.5 229 C 268.167969 231.710938 267.804688 234.40625 267.410156 237.082031 C 267.011719 239.757812 266.582031 242.410156 266.121094 245.042969 C 265.664062 247.671875 265.171875 250.28125 264.648438 252.863281 C 264.125 255.445312 263.570312 258 262.988281 260.527344 C 262.402344 263.054688 261.789062 265.550781 261.144531 268.015625 C 260.5 270.480469 259.824219 272.914062 259.125 275.3125 C 258.421875 277.707031 257.691406 280.070312 256.929688 282.394531 C 256.171875 284.71875 255.382812 287.003906 254.570312 289.25 C 253.757812 291.492188 252.914062 293.695312 252.046875 295.859375 C 251.183594 298.019531 250.289062 300.136719 249.371094 302.207031 C 248.453125 304.277344 247.511719 306.300781 246.546875 308.277344 C 245.578125 310.253906 244.589844 312.183594 243.578125 314.058594 C 242.5625 315.9375 241.53125 317.761719 240.472656 319.535156 C 239.417969 321.308594 238.339844 323.027344 237.242188 324.691406 C 236.144531 326.359375 235.027344 327.96875 233.890625 329.519531 C 232.753906 331.074219 231.601562 332.570312 230.429688 334.007812 C 229.257812 335.441406 228.066406 336.820312 226.863281 338.136719 C 225.65625 339.457031 224.4375 340.710938 223.199219 341.90625 C 221.964844 343.101562 220.714844 344.234375 219.453125 345.304688 C 218.191406 346.375 216.917969 347.378906 215.628906 348.324219 C 214.34375 349.265625 213.046875 350.140625 211.738281 350.953125 C 210.429688 351.765625 209.113281 352.507812 207.789062 353.1875 C 206.460938 353.867188 205.128906 354.480469 203.789062 355.023438 C 202.449219 355.570312 201.101562 356.046875 199.75 356.457031 C 198.398438 356.867188 197.042969 357.210938 195.683594 357.484375 C 194.320312 357.757812 192.960938 357.964844 191.59375 358.101562 C 190.230469 358.238281 188.863281 358.308594 187.496094 358.308594 Z M 187.496094 358.308594 " fill-opacity="1" fill-rule="nonzero"/></g><g clip-path="url(#92b83d4646)"><path fill="#3883a4" d="M 261.550781 187.496094 C 261.550781 210.066406 259.410156 231.941406 255.128906 252.578125 C 251.058594 272.246094 245.261719 289.914062 237.878906 304.960938 C 230.835938 319.3125 222.417969 330.976562 213.585938 338.636719 C 205.09375 345.953125 196.332031 349.679688 187.496094 349.679688 C 178.664062 349.679688 169.898438 345.953125 161.410156 338.636719 C 152.574219 330.976562 144.15625 319.3125 137.117188 304.960938 C 129.730469 289.914062 123.933594 272.246094 119.863281 252.578125 C 115.585938 232.011719 113.445312 210.132812 113.445312 187.496094 C 113.445312 164.859375 115.585938 143.050781 119.863281 122.417969 C 123.933594 102.746094 129.730469 85.082031 137.117188 70.035156 C 144.15625 55.679688 152.574219 44.015625 161.410156 36.355469 C 169.898438 29.039062 178.664062 25.3125 187.496094 25.3125 C 196.332031 25.3125 205.09375 29.039062 213.585938 36.355469 C 222.417969 44.015625 230.835938 55.679688 237.878906 70.035156 C 245.261719 85.082031 251.058594 102.746094 255.128906 122.417969 C 259.339844 143.050781 261.550781 164.929688 261.550781 187.496094 M 271.902344 187.496094 C 271.902344 92.1875 234.082031 14.960938 187.496094 14.960938 C 140.914062 14.960938 103.09375 92.1875 103.09375 187.496094 C 103.09375 282.804688 140.84375 360.03125 187.496094 360.03125 C 234.082031 360.03125 271.902344 282.804688 271.902344 187.496094 Z M 271.902344 187.496094 " fill-opacity="1" fill-rule="nonzero"/></g><g clip-path="url(#8b080110e1)"><g clip-path="url(#802d7c1fa3)"><g clip-path="url(#63b77938f9)"><path fill="#2d5771" d="M 294.171875 320.902344 C 293.101562 321.753906 291.992188 322.554688 290.839844 323.300781 C 289.691406 324.046875 288.496094 324.734375 287.265625 325.371094 C 286.03125 326.007812 284.757812 326.585938 283.445312 327.109375 C 282.132812 327.632812 280.785156 328.101562 279.398438 328.511719 C 278.007812 328.925781 276.585938 329.277344 275.125 329.574219 C 273.667969 329.875 272.171875 330.113281 270.644531 330.296875 C 269.117188 330.480469 267.554688 330.605469 265.960938 330.671875 C 264.371094 330.742188 262.746094 330.75 261.089844 330.703125 C 259.4375 330.65625 257.753906 330.554688 256.042969 330.390625 C 254.332031 330.230469 252.59375 330.011719 250.828125 329.734375 C 249.066406 329.457031 247.277344 329.125 245.464844 328.734375 C 243.652344 328.34375 241.816406 327.894531 239.957031 327.394531 C 238.101562 326.890625 236.222656 326.332031 234.328125 325.714844 C 232.429688 325.101562 230.515625 324.429688 228.582031 323.707031 C 226.648438 322.980469 224.699219 322.199219 222.738281 321.367188 C 220.773438 320.53125 218.796875 319.644531 216.808594 318.707031 C 214.820312 317.765625 212.820312 316.773438 210.808594 315.726562 C 208.800781 314.683594 206.78125 313.589844 204.753906 312.441406 C 202.726562 311.296875 200.695312 310.101562 198.65625 308.855469 C 196.617188 307.609375 194.578125 306.316406 192.53125 304.976562 C 190.488281 303.632812 188.441406 302.246094 186.398438 300.8125 C 184.351562 299.378906 182.304688 297.902344 180.261719 296.378906 C 178.21875 294.855469 176.183594 293.289062 174.148438 291.679688 C 172.113281 290.070312 170.085938 288.421875 168.0625 286.730469 C 166.042969 285.039062 164.03125 283.3125 162.027344 281.542969 C 160.023438 279.773438 158.03125 277.96875 156.050781 276.128906 C 154.070312 274.285156 152.105469 272.410156 150.152344 270.5 C 148.199219 268.589844 146.261719 266.648438 144.339844 264.671875 C 142.421875 262.699219 140.519531 260.691406 138.636719 258.660156 C 136.75 256.625 134.890625 254.5625 133.046875 252.472656 C 131.203125 250.382812 129.386719 248.269531 127.589844 246.132812 C 125.792969 243.992188 124.023438 241.832031 122.277344 239.648438 C 120.53125 237.464844 118.8125 235.261719 117.121094 233.039062 C 115.429688 230.816406 113.769531 228.578125 112.136719 226.320312 C 110.503906 224.066406 108.902344 221.792969 107.332031 219.511719 C 105.761719 217.226562 104.222656 214.929688 102.71875 212.621094 C 101.214844 210.3125 99.746094 207.996094 98.3125 205.671875 C 96.878906 203.347656 95.480469 201.015625 94.121094 198.679688 C 92.757812 196.339844 91.4375 194 90.152344 191.65625 C 88.867188 189.3125 87.625 186.972656 86.417969 184.628906 C 85.214844 182.285156 84.050781 179.941406 82.929688 177.605469 C 81.808594 175.265625 80.730469 172.933594 79.691406 170.605469 C 78.65625 168.277344 77.664062 165.957031 76.714844 163.644531 C 75.765625 161.332031 74.863281 159.035156 74.003906 156.742188 C 73.144531 154.453125 72.332031 152.179688 71.566406 149.917969 C 70.800781 147.65625 70.082031 145.410156 69.40625 143.179688 C 68.734375 140.949219 68.109375 138.742188 67.535156 136.550781 C 66.957031 134.359375 66.429688 132.191406 65.949219 130.042969 C 65.46875 127.894531 65.039062 125.773438 64.65625 123.671875 C 64.277344 121.574219 63.945312 119.503906 63.660156 117.457031 C 63.378906 115.414062 63.148438 113.398438 62.964844 111.414062 C 62.78125 109.425781 62.648438 107.472656 62.566406 105.550781 C 62.484375 103.625 62.453125 101.738281 62.46875 99.882812 C 62.488281 98.027344 62.554688 96.210938 62.675781 94.429688 C 62.792969 92.648438 62.960938 90.902344 63.179688 89.199219 C 63.398438 87.492188 63.667969 85.828125 63.984375 84.203125 C 64.304688 82.582031 64.671875 81 65.085938 79.460938 C 65.503906 77.921875 65.96875 76.425781 66.484375 74.976562 C 67 73.523438 67.5625 72.121094 68.171875 70.761719 C 68.785156 69.402344 69.441406 68.09375 70.148438 66.832031 C 70.855469 65.566406 71.609375 64.351562 72.410156 63.1875 C 73.207031 62.023438 74.054688 60.910156 74.945312 59.847656 C 75.835938 58.785156 76.769531 57.773438 77.75 56.8125 C 78.730469 55.851562 79.757812 54.945312 80.824219 54.09375 C 81.890625 53.238281 83 52.441406 84.152344 51.695312 C 85.304688 50.949219 86.496094 50.257812 87.730469 49.625 C 88.964844 48.988281 90.234375 48.410156 91.546875 47.882812 C 92.859375 47.359375 94.210938 46.894531 95.597656 46.480469 C 96.984375 46.070312 98.40625 45.714844 99.867188 45.417969 C 101.328125 45.121094 102.820312 44.882812 104.347656 44.699219 C 105.878906 44.515625 107.4375 44.390625 109.03125 44.320312 C 110.625 44.253906 112.246094 44.242188 113.902344 44.289062 C 115.554688 44.335938 117.238281 44.441406 118.949219 44.601562 C 120.660156 44.765625 122.398438 44.984375 124.164062 45.261719 C 125.929688 45.539062 127.714844 45.871094 129.53125 46.261719 C 131.34375 46.652344 133.179688 47.097656 135.035156 47.601562 C 136.894531 48.105469 138.769531 48.664062 140.667969 49.277344 C 142.566406 49.894531 144.480469 50.5625 146.414062 51.289062 C 148.34375 52.015625 150.292969 52.792969 152.257812 53.628906 C 154.21875 54.460938 156.195312 55.347656 158.183594 56.289062 C 160.175781 57.230469 162.175781 58.222656 164.183594 59.265625 C 166.195312 60.3125 168.214844 61.40625 170.238281 62.550781 C 172.265625 63.699219 174.296875 64.894531 176.335938 66.140625 C 178.375 67.386719 180.417969 68.679688 182.460938 70.019531 C 184.503906 71.359375 186.550781 72.746094 188.597656 74.183594 C 190.644531 75.617188 192.6875 77.09375 194.730469 78.617188 C 196.773438 80.140625 198.8125 81.707031 200.847656 83.316406 C 202.882812 84.921875 204.910156 86.574219 206.929688 88.265625 C 208.953125 89.953125 210.964844 91.683594 212.96875 93.453125 C 214.96875 95.21875 216.960938 97.023438 218.941406 98.867188 C 220.921875 100.707031 222.890625 102.582031 224.84375 104.492188 C 226.796875 106.40625 228.730469 108.347656 230.652344 110.320312 C 232.574219 112.296875 234.476562 114.300781 236.359375 116.335938 C 238.242188 118.371094 240.105469 120.433594 241.945312 122.519531 C 243.789062 124.609375 245.609375 126.722656 247.402344 128.863281 C 249.199219 131 250.972656 133.164062 252.71875 135.347656 C 254.460938 137.527344 256.179688 139.730469 257.871094 141.953125 C 259.5625 144.175781 261.226562 146.417969 262.859375 148.671875 C 264.492188 150.929688 266.09375 153.199219 267.664062 155.484375 C 269.234375 157.769531 270.769531 160.066406 272.273438 162.375 C 273.777344 164.683594 275.246094 167 276.683594 169.324219 C 278.117188 171.648438 279.511719 173.980469 280.875 176.316406 C 282.234375 178.652344 283.558594 180.992188 284.839844 183.335938 C 286.125 185.679688 287.371094 188.023438 288.574219 190.367188 C 289.777344 192.710938 290.941406 195.050781 292.0625 197.390625 C 293.1875 199.730469 294.265625 202.0625 295.300781 204.390625 C 296.339844 206.71875 297.332031 209.039062 298.277344 211.347656 C 299.226562 213.660156 300.132812 215.960938 300.988281 218.25 C 301.847656 220.539062 302.660156 222.816406 303.425781 225.078125 C 304.195312 227.339844 304.914062 229.585938 305.585938 231.816406 C 306.257812 234.042969 306.882812 236.253906 307.460938 238.445312 C 308.035156 240.636719 308.5625 242.804688 309.042969 244.953125 C 309.523438 247.097656 309.953125 249.222656 310.335938 251.320312 C 310.71875 253.417969 311.050781 255.492188 311.332031 257.535156 C 311.613281 259.582031 311.847656 261.597656 312.03125 263.582031 C 312.210938 265.570312 312.34375 267.523438 312.425781 269.445312 C 312.507812 271.367188 312.542969 273.257812 312.523438 275.109375 C 312.503906 276.964844 312.4375 278.785156 312.320312 280.566406 C 312.199219 282.347656 312.03125 284.089844 311.8125 285.796875 C 311.59375 287.5 311.328125 289.164062 311.007812 290.789062 C 310.691406 292.414062 310.324219 293.996094 309.90625 295.535156 C 309.488281 297.074219 309.023438 298.570312 308.507812 300.019531 C 307.996094 301.46875 307.433594 302.875 306.820312 304.230469 C 306.210938 305.589844 305.550781 306.902344 304.84375 308.164062 C 304.136719 309.425781 303.386719 310.640625 302.585938 311.804688 C 301.785156 312.96875 300.941406 314.085938 300.050781 315.148438 C 299.160156 316.210938 298.222656 317.222656 297.242188 318.183594 C 296.261719 319.140625 295.238281 320.046875 294.171875 320.902344 Z M 294.171875 320.902344 " fill-opacity="1" fill-rule="nonzero"/></g></g></g><g clip-path="url(#a2b95ac5a5)"><g clip-path="url(#6d2d7ea5cf)"><g clip-path="url(#060cbb32ba)"><path fill="#2d5771" d="M 245.332031 141.25 C 259.425781 158.875 271.417969 177.300781 280.964844 196.085938 C 290.066406 213.992188 296.574219 231.410156 300.203125 247.773438 C 303.667969 263.382812 304.375 277.75 302.261719 289.25 C 300.199219 300.261719 295.683594 308.648438 288.78125 314.164062 C 281.882812 319.679688 272.710938 322.246094 261.511719 321.832031 C 249.828125 321.367188 235.96875 317.515625 221.507812 310.699219 C 206.34375 303.5625 190.78125 293.382812 175.316406 280.5625 C 159.132812 267.175781 143.796875 251.421875 129.660156 233.742188 C 115.523438 216.066406 103.574219 197.695312 94.03125 178.90625 C 84.925781 161.003906 78.421875 143.582031 74.792969 127.222656 C 71.324219 111.613281 70.617188 97.246094 72.734375 85.746094 C 74.792969 74.730469 79.3125 66.347656 86.210938 60.832031 C 93.109375 55.3125 102.28125 52.75 113.480469 53.164062 C 125.164062 53.628906 139.023438 57.480469 153.488281 64.292969 C 168.652344 71.433594 184.210938 81.613281 199.675781 94.429688 C 215.851562 107.917969 231.238281 123.625 245.332031 141.25 M 253.417969 134.785156 C 193.894531 60.347656 116.128906 23.652344 79.746094 52.746094 C 43.363281 81.835938 62.054688 165.773438 121.574219 240.210938 C 181.097656 314.644531 258.8125 351.386719 295.246094 322.25 C 331.632812 293.15625 312.9375 209.222656 253.417969 134.785156 Z M 253.417969 134.785156 " fill-opacity="1" fill-rule="nonzero"/></g></g></g></svg>